<?xml version="1.0" encoding="UTF-8"?>
<svg version="1.1" xmlns="http://www.w3.org/2000/svg" width="3840" height="2160">
<path d="M0 0 C0.33 102.63 0.66 205.26 1 311 C3.64 306.05 6.28 301.1 9 296 C11.92972404 292.10765235 14.73637262 288.56429657 18 285 C19.13888672 283.73929688 19.13888672 283.73929688 20.30078125 282.453125 C43.85347246 257.62835718 78.80504607 245.44956773 112 241 C113.62808594 240.77570313 113.62808594 240.77570313 115.2890625 240.546875 C118.20358756 240.23489767 121.06946218 240.08199802 124 240 C124.72413086 239.97953613 125.44826172 239.95907227 126.19433594 239.93798828 C161.15594883 239.09629406 196.13587972 244.9682488 227 262 C228.06605469 262.57621094 229.13210938 263.15242188 230.23046875 263.74609375 C241.57893394 270.10299599 251.57967944 278.06942088 261 287 C262.41925781 288.32257813 262.41925781 288.32257813 263.8671875 289.671875 C277.36464408 302.50472592 287.26214104 317.64089839 296 334 C296.3928418 334.72960938 296.78568359 335.45921875 297.19042969 336.2109375 C337.64853414 412.64329852 336.49003739 521.38974101 311.45043945 602.77050781 C301.90815223 632.25880498 287.76624906 659.7418583 266 682 C265.05619939 683.00418285 264.11350742 684.00940873 263.171875 685.015625 C241.51293761 707.8250793 212.38322066 721.23779944 182 728 C181.33033203 728.15307617 180.66066406 728.30615234 179.97070312 728.46386719 C134.25079218 738.62638485 80.80705516 734.32210936 40.66943359 708.84399414 C34.75210058 704.96806004 29.35060263 700.62804262 24 696 C22.77239644 695.01887435 21.54352826 694.03932521 20.3125 693.0625 C19.549375 692.381875 18.78625 691.70125 18 691 C18 690.34 18 689.68 18 689 C17.34 689 16.68 689 16 689 C12.77053838 685.53157187 9.91492319 681.73463904 7 678 C6.20207031 676.98164062 5.40414063 675.96328125 4.58203125 674.9140625 C0.07910744 669.04593064 -3.34550219 663.57809605 -7 657 C-7.33 678.78 -7.66 700.56 -8 723 C-52.55 723 -97.1 723 -143 723 C-143 488.7 -143 254.4 -143 13 C-133.19546843 11.77443355 -123.46528567 10.60370499 -113.63305664 9.76318359 C-112.40337662 9.65560226 -111.17369659 9.54802094 -109.90675354 9.43717957 C-106.593871 9.14793932 -103.28078298 8.86132273 -99.96756291 8.57599211 C-96.4818872 8.27517759 -92.99650882 7.97095457 -89.51109314 7.66714478 C-83.67919594 7.15926486 -77.84711516 6.65354315 -72.01489258 6.14941406 C-63.77920361 5.43752913 -55.54386501 4.7216533 -47.30858815 4.00501895 C-40.90500892 3.44791348 -34.50134264 2.89180967 -28.09765625 2.3359375 C-27.41122268 2.2763459 -26.72478911 2.21675429 -26.01755452 2.15535688 C-21.48711147 1.76214156 -16.95658853 1.36985706 -12.42602539 0.97802734 C-11.27656433 0.87831131 -10.12710327 0.77859528 -8.94281006 0.67585754 C-7.90437454 0.58619217 -6.86593903 0.49652679 -5.79603577 0.40414429 C-4.43483911 0.28636407 -4.43483911 0.28636407 -3.04614353 0.16620445 C-1 0 -1 0 0 0 Z M24.4375 380.5625 C6.97882735 400.76644097 -0.12400036 427.80214704 -0.16113281 454.10546875 C-0.16609772 454.96705093 -0.17106262 455.82863312 -0.17617798 456.71632385 C-0.19066761 459.54005767 -0.19758084 462.36373525 -0.203125 465.1875 C-0.20595238 466.16199097 -0.20877975 467.13648193 -0.21169281 468.14050293 C-0.22663488 473.30184189 -0.23589471 478.46315329 -0.24023438 483.62451172 C-0.24569913 488.9082203 -0.26969939 494.19166863 -0.29820633 499.47529602 C-0.31699638 503.57986139 -0.32204702 507.68436623 -0.32357025 511.78897095 C-0.32656258 513.73427751 -0.33447251 515.6795839 -0.34775543 517.62484741 C-0.44443575 532.87686213 0.62589585 547.66081993 5.6875 562.1875 C6.07095581 563.30064575 6.07095581 563.30064575 6.4621582 564.4362793 C14.13618742 585.74743583 29.52485165 603.15440502 50 613 C52.96740756 614.20671811 55.96691543 615.28300845 59 616.3125 C60.06637695 616.67625732 60.06637695 616.67625732 61.15429688 617.04736328 C71.35044063 620.31151338 81.58201101 621.3701332 92.25 621.3125 C93.33829102 621.30758545 94.42658203 621.3026709 95.54785156 621.29760742 C117.57775853 620.97939765 138.14488471 614.29605378 154.3359375 598.8515625 C177.67097959 573.87417141 184.07095777 537.92040074 184.203125 504.80859375 C184.20882507 503.66503922 184.21452515 502.52148468 184.22039795 501.34327698 C184.22979479 498.92881172 184.23636062 496.51433395 184.24023438 494.09985352 C184.2498353 490.49926708 184.28086724 486.89927855 184.3125 483.29882812 C184.48536976 445.57149871 180.27515802 402.7410867 153 374 C134.19871708 355.8681126 111.15583934 352.46797635 86.13671875 352.71875 C62.44932518 353.34366475 40.78582395 363.44784836 24.4375 380.5625 Z " fill="#0078F6" transform="translate(1964,712)"/>
<path d="M0 0 C0.33 155.43 0.66 310.86 1 471 C5.95 463.08 10.9 455.16 16 447 C47.25 397 78.5 347 109.75 297 C110.36955566 296.00863037 110.98911133 295.01726074 111.62744141 293.99584961 C112.8690104 292.00950109 114.11086918 290.02333366 115.35302734 288.03735352 C118.60950437 282.82998571 121.85987428 277.61893281 125.1015625 272.40234375 C126.11186523 270.7790918 126.11186523 270.7790918 127.14257812 269.12304688 C128.42700388 267.05910755 129.70966885 264.99407099 130.99023438 262.92773438 C131.86518555 261.52297852 131.86518555 261.52297852 132.7578125 260.08984375 C133.2645752 259.27378662 133.77133789 258.45772949 134.29345703 257.61694336 C134.85661621 256.75335205 135.41977539 255.88976074 136 255 C136.56449356 253.80741577 137.12898712 252.61483154 137.71058655 251.3861084 C139.6271801 248.75236486 140.63144466 248.08215016 143.85093307 247.36453342 C147.68958993 247.1346376 151.49555843 247.13377322 155.3371582 247.20532227 C156.81570847 247.20729761 158.29426561 247.20618683 159.77281189 247.20222473 C163.78125553 247.20021737 167.78823098 247.24135062 171.79633355 247.29024243 C175.98696449 247.33402171 180.17762965 247.33811508 184.36845398 247.34642029 C192.30178856 247.36817148 200.23444737 247.42560641 208.16748446 247.49586672 C217.19998105 247.57412685 226.23251003 247.61260078 235.26526129 247.64773476 C253.84389057 247.72088991 272.42189094 247.84400279 291 248 C290.19503807 252.89606869 288.12239816 256.25877172 285.375 260.3125 C284.3691616 261.83075298 283.36537201 263.35036462 282.36328125 264.87109375 C281.8213916 265.69206543 281.27950195 266.51303711 280.72119141 267.35888672 C277.5970531 272.15277724 274.58477021 277.01649685 271.5625 281.875 C270.27626764 283.93894293 268.98981069 286.00274591 267.703125 288.06640625 C267.07857422 289.06816895 266.45402344 290.06993164 265.81054688 291.10205078 C263.15813423 295.34748473 260.48790769 299.58153005 257.8125 303.8125 C257.32700684 304.58037842 256.84151367 305.34825684 256.34130859 306.1394043 C254.41544914 309.18422227 252.48846967 312.22833067 250.56152344 315.27246094 C244.51250591 324.83064482 238.49030179 334.40488796 232.5 344 C225.56014493 355.11608218 218.57050728 366.19988429 211.56152344 377.27246094 C205.51250591 386.83064482 199.49030179 396.40488796 193.5 406 C186.56014493 417.11608218 179.57050728 428.19988429 172.56152344 439.27246094 C166.31184223 449.14771786 160.08236168 459.03558083 153.875 468.9375 C153.22297607 469.97479248 152.57095215 471.01208496 151.89916992 472.08081055 C151.29049072 473.0531665 150.68181152 474.02552246 150.0546875 475.02734375 C149.51312012 475.89093506 148.97155273 476.75452637 148.41357422 477.64428711 C147.71385498 478.81036499 147.71385498 478.81036499 147 480 C146.57299805 480.69593262 146.14599609 481.39186523 145.70605469 482.10888672 C145.47305664 482.7329541 145.24005859 483.35702148 145 484 C146.33438942 486.61502382 147.69547823 488.80366265 149.375 491.1875 C150.40518367 492.71120097 151.43372829 494.23601095 152.4609375 495.76171875 C153.02780273 496.59493652 153.59466797 497.4281543 154.17871094 498.28662109 C157.54319907 503.299077 160.75974589 508.4067436 164 513.5 C170.29832429 523.35622398 176.6329857 533.18805471 183 543 C190.07327585 553.90033608 197.09735064 564.83115335 204.09643555 575.77929688 C207.88113415 581.6970098 211.67667714 587.6071721 215.5 593.5 C220.73603944 601.57022593 225.91607597 609.67598475 231.09765625 617.78125 C234.88197823 623.69829234 238.67709502 629.60781618 242.5 635.5 C247.02947723 642.48121261 251.51758303 649.48849136 256 656.5 C261.87352641 665.68653341 267.77114672 674.85661303 273.70556641 684.00390625 C275.04845073 686.07471391 276.38972225 688.14655761 277.73046875 690.21875 C278.41665283 691.27920532 278.41665283 691.27920532 279.11669922 692.36108398 C280.02899966 693.77172008 280.94079497 695.182683 281.85205078 696.59399414 C284.26631579 700.33110238 286.69299499 704.0594195 289.13671875 707.77734375 C289.6471875 708.55722656 290.15765625 709.33710937 290.68359375 710.140625 C291.66817826 711.64435407 292.65632802 713.14575623 293.6484375 714.64453125 C297 719.7750756 297 719.7750756 297 722 C277.37252772 722.42117534 257.74597634 722.73822255 238.1149168 722.93261909 C228.99881819 723.02529796 219.88553249 723.15154091 210.77124023 723.35791016 C202.82346835 723.53778024 194.87773327 723.653548 186.92798263 723.69359291 C182.72035877 723.71699493 178.51855899 723.77161345 174.3128109 723.90314102 C148.7830718 724.67090008 148.7830718 724.67090008 142.56848526 720.28331757 C138.77620585 716.15234872 136.72818555 711.59946963 134.92084503 706.34616089 C133.37161116 702.39896913 130.96700578 699.03221007 128.5625 695.5625 C128.05315918 694.77907227 127.54381836 693.99564453 127.01904297 693.18847656 C126.61830566 692.57456055 126.21756836 691.96064453 125.8046875 691.328125 C122.89206672 686.84811068 120.03526859 682.33393658 117.1875 677.8125 C112.81012433 670.86313928 108.4132472 663.92664015 104 657 C99.1621969 649.4054747 94.34256905 641.79984878 89.5390625 634.18359375 C85.70797641 628.11263987 81.85678831 622.05465239 78 616 C73.1622837 608.40541918 68.34256929 600.79984917 63.5390625 593.18359375 C59.70797641 587.11263987 55.85678831 581.05465239 52 575 C47.1622837 567.40541918 42.34256929 559.79984917 37.5390625 552.18359375 C33.12156249 545.18337548 28.67675265 538.20068667 24.22851562 531.2199707 C21.36171272 526.71891515 18.50096225 522.21427475 15.65625 517.69921875 C14.85767578 516.43174805 14.85767578 516.43174805 14.04296875 515.13867188 C13.05491189 513.56903725 12.06783986 511.99878199 11.08203125 510.42773438 C7.80493606 505.22100291 4.41577304 500.12365956 1 495 C0.67 569.91 0.34 644.82 0 722 C-47.52 722 -95.04 722 -144 722 C-144 487.7 -144 253.4 -144 12 C-124.45308388 9.70036281 -124.45308388 9.70036281 -114.81152344 8.85498047 C-113.71801575 8.75715271 -112.62450806 8.65932495 -111.49786377 8.55853271 C-107.95192956 8.24211179 -104.40568475 7.92936945 -100.859375 7.6171875 C-98.35890239 7.39589631 -95.85843454 7.17455131 -93.35797119 6.95315552 C-88.14733471 6.49250424 -82.93651754 6.03396023 -77.72558594 5.57666016 C-72.40102436 5.10908352 -67.07681345 4.63782466 -61.75292969 4.16259766 C-55.27579844 3.58457908 -48.79819562 3.01216835 -42.32019806 2.44394302 C-39.86903894 2.22810687 -37.41804053 2.01043693 -34.96721649 1.7908287 C-31.53556185 1.48388182 -28.10334149 1.1842141 -24.67089844 0.88623047 C-23.6783606 0.79586517 -22.68582275 0.70549988 -21.66320801 0.61239624 C-14.3613484 -0.01046438 -7.40096283 0 0 0 Z " fill="#0078F6" transform="translate(3521,713)"/>
<path d="M0 0 C12.2110548 11.46269419 21.09480315 25.33005578 29.0625 39.9375 C29.3925 17.4975 29.7225 -4.9425 30.0625 -28.0625 C74.51669231 -36.95333846 120.72794119 -29.0625 166.0625 -29.0625 C166.0625 127.3575 166.0625 283.7775 166.0625 444.9375 C121.1825 444.9375 76.3025 444.9375 30.0625 444.9375 C29.7325 423.1575 29.4025 401.3775 29.0625 378.9375 C25.7625 384.2175 22.4625 389.4975 19.0625 394.9375 C0.03942309 421.56980767 -25.16470058 440.33121563 -56.9375 448.9375 C-57.66839844 449.13569336 -58.39929688 449.33388672 -59.15234375 449.53808594 C-108.17657367 462.31109488 -164.35731571 454.48714617 -208.07421875 429.1171875 C-217.86540684 423.02671346 -226.52885329 415.80161085 -234.9375 407.9375 C-235.8140625 407.12667969 -236.690625 406.31585937 -237.59375 405.48046875 C-250.14997199 393.44742268 -259.7357119 379.20507551 -267.9375 363.9375 C-268.31471191 363.23915039 -268.69192383 362.54080078 -269.08056641 361.82128906 C-309.70323572 285.15414464 -309.11333755 175.30564548 -284.88769531 93.97851562 C-280.52524433 80.01687908 -274.79673849 66.83631955 -267.9375 53.9375 C-267.18533203 52.46603516 -267.18533203 52.46603516 -266.41796875 50.96484375 C-246.47583116 12.78361613 -211.92305668 -15.70339043 -171.12207031 -29.02783203 C-112.14674205 -47.00501633 -47.22915535 -41.43255051 0 0 Z M-120.9375 91.9375 C-121.55753906 92.38351562 -122.17757812 92.82953125 -122.81640625 93.2890625 C-140.70100535 106.81662469 -148.32290216 132.29655068 -152.625 153.125 C-152.82754395 154.09091064 -153.03008789 155.05682129 -153.23876953 156.05200195 C-156.62087142 173.33062173 -157.26589635 190.62937767 -157.19824219 208.19213867 C-157.18749993 211.50002308 -157.19821963 214.80736602 -157.2109375 218.11523438 C-157.22193364 234.17162235 -156.49071001 250.10047172 -153.25 265.875 C-153.08338867 266.68727051 -152.91677734 267.49954102 -152.74511719 268.33642578 C-147.46610142 292.57613926 -136.79818248 315.41208799 -116.02734375 330.0078125 C-95.47105069 342.84575027 -69.54618033 346.07983898 -45.875 341.8125 C-23.28384887 336.3987191 -4.47294324 323.59847156 7.91308594 303.87792969 C20.35016818 282.88176791 23.38299737 261.23971116 23.36328125 237.28125 C23.36718018 235.2874747 23.37151725 233.29370021 23.37626648 231.29992676 C23.38369106 227.13449404 23.38346635 222.96914612 23.37817383 218.80371094 C23.37240573 213.52721391 23.38926434 208.25107095 23.4125185 202.97463226 C23.42742653 198.85789032 23.42810431 194.74123011 23.42500877 190.62446594 C23.42551418 188.68247277 23.43060071 186.74047403 23.44082069 184.79850769 C23.59116697 152.22209893 17.84268169 120.63615767 -5.25 96.1875 C-23.18461184 78.98866711 -45.85962132 74.30674076 -69.81152344 74.53515625 C-89.08837658 74.99700299 -105.83506409 79.6243659 -120.9375 91.9375 Z " fill="#0078F6" transform="translate(699.9375,990.0625)"/>
<path d="M0 0 C17.17072322 15.88766906 30.52999095 33.92788699 41.15112305 54.75439453 C41.47806152 55.39441406 41.805 56.03443359 42.1418457 56.69384766 C61.6227173 95.3910986 67.89256765 138.88947848 69.15112305 181.75439453 C69.18616943 182.83793213 69.18616943 182.83793213 69.22192383 183.94335938 C71.08485237 249.39633619 57.31692688 322.62751874 11.15112305 371.75439453 C10.2986499 372.6624585 10.2986499 372.6624585 9.42895508 373.58886719 C-34.01124669 419.36220397 -94.47542608 435.4928006 -155.84887695 437.75439453 C-156.78344727 437.78903809 -157.71801758 437.82368164 -158.6809082 437.859375 C-205.33461594 439.30162672 -253.53310953 430.99879487 -294.84887695 408.75439453 C-296.5987793 407.83400391 -296.5987793 407.83400391 -298.3840332 406.89501953 C-312.67788232 399.09544459 -325.1551574 389.01819793 -336.84887695 377.75439453 C-337.60168945 377.06474609 -338.35450195 376.37509766 -339.13012695 375.66455078 C-350.25607847 365.16342625 -359.36908518 352.04184897 -366.84887695 338.75439453 C-367.43016357 337.73104004 -367.43016357 337.73104004 -368.02319336 336.68701172 C-406.56021757 268.2736445 -410.61101844 173.59561694 -390.21435547 98.71606445 C-382.29620502 70.9938147 -371.08861839 44.32531203 -352.84887695 21.75439453 C-352.43025391 21.23425781 -352.01163086 20.71412109 -351.58032227 20.17822266 C-320.2582584 -18.50417794 -276.45320786 -41.0762115 -227.84887695 -50.24560547 C-227.0496582 -50.39723145 -226.25043945 -50.54885742 -225.42700195 -50.70507812 C-219.92086702 -51.72038571 -214.40253388 -52.53853231 -208.84887695 -53.24560547 C-208.0515918 -53.35001953 -207.25430664 -53.45443359 -206.43286133 -53.56201172 C-134.78866734 -62.49633109 -54.78827305 -49.86173322 0 0 Z M-229.84887695 82.75439453 C-230.61071289 83.49173828 -231.37254883 84.22908203 -232.1574707 84.98876953 C-253.62207473 107.16018028 -257.98604744 139.1172701 -258.05200195 168.61376953 C-258.05482933 169.47294228 -258.05765671 170.33211502 -258.06056976 171.2173233 C-258.07550909 175.7737915 -258.08476892 180.33022852 -258.08911133 184.88671875 C-258.09347877 188.61045219 -258.10731007 192.33395169 -258.13012695 196.05761719 C-258.36183696 234.6345109 -257.14484868 272.45369347 -229.3059082 302.27783203 C-213.06637212 318.64645822 -192.08351757 326.20231604 -169.23168945 326.78564453 C-144.32595927 326.87559751 -120.54899845 319.83501971 -102.36889648 302.29785156 C-78.76715356 278.33218842 -72.72022154 245.78511839 -72.64575195 213.29736328 C-72.64292458 212.45900751 -72.6400972 211.62065174 -72.63718414 210.75689125 C-72.62224855 206.31180134 -72.61298606 201.86674335 -72.60864258 197.42163086 C-72.60427317 193.78806431 -72.59043373 190.15473723 -72.56762695 186.52124023 C-72.15984147 158.97466196 -72.15984147 158.97466196 -75.84887695 131.75439453 C-76.00329254 131.0535675 -76.15770813 130.35274048 -76.31680298 129.63067627 C-78.37710038 120.41713992 -81.50472119 112.12791216 -85.84887695 103.75439453 C-86.36192383 102.74634766 -86.8749707 101.73830078 -87.40356445 100.69970703 C-91.8110717 92.58061474 -97.38127426 86.25040543 -103.84887695 79.75439453 C-104.78280273 78.76826172 -104.78280273 78.76826172 -105.7355957 77.76220703 C-122.21637786 61.68881499 -146.97802558 57.47917513 -169.04516602 57.5078125 C-192.56983626 57.82222131 -213.04729145 66.25332519 -229.84887695 82.75439453 Z " fill="#0078F6" transform="translate(2738.848876953125,1007.24560546875)"/>
<path d="M0 0 C0.87650208 -0.00067474 1.75300415 -0.00134949 2.65606689 -0.00204468 C42.88277245 0.04678411 83.67508214 6.20518934 120 24.25 C120.78455566 24.63414062 121.56911133 25.01828125 122.37744141 25.4140625 C133.3161887 30.81054018 143.3481045 36.79558008 153 44.25 C153.87011719 44.89710938 154.74023438 45.54421875 155.63671875 46.2109375 C170.7881131 57.95152791 184.3628631 72.3193232 195 88.25 C195.58152832 89.11310791 195.58152832 89.11310791 196.17480469 89.99365234 C219.38235593 125.02562144 229.46567976 165.98276393 234 207.25 C234.1045752 208.19609131 234.20915039 209.14218262 234.31689453 210.11694336 C239.56112051 266.41028501 233.89082407 326.58549923 210 378.25 C209.5369043 379.27262939 209.5369043 379.27262939 209.06445312 380.31591797 C188.69045887 424.9513335 150.39090295 458.61058627 105 476.25 C74.7694602 487.4164623 43.15177519 492.47525843 11 493.25 C10.19240234 493.27191406 9.38480469 493.29382812 8.55273438 493.31640625 C-52.93400618 494.77228803 -113.87860771 480.80528057 -162 441.25 C-162.79921875 440.60546875 -163.5984375 439.9609375 -164.421875 439.296875 C-165.99376761 438.00163549 -167.50745746 436.63593236 -169 435.25 C-169 434.59 -169 433.93 -169 433.25 C-169.66 433.25 -170.32 433.25 -171 433.25 C-171 432.59 -171 431.93 -171 431.25 C-171.66 431.25 -172.32 431.25 -173 431.25 C-175.58235354 428.83001001 -177.74665683 425.97278966 -180 423.25 C-180.44730469 422.71890625 -180.89460938 422.1878125 -181.35546875 421.640625 C-188.41723068 413.2346671 -194.61746687 404.67981262 -199.97070312 395.08984375 C-200.96705373 393.30889068 -201.98963021 391.54524105 -203.015625 389.78125 C-227.6977768 346.44067489 -234.24676774 293.87301561 -234.1875 244.8125 C-234.18689575 243.8855835 -234.1862915 242.95866699 -234.18566895 242.00366211 C-234.16035058 227.66852788 -233.82695335 213.48583891 -232 199.25 C-231.87109375 198.22664551 -231.7421875 197.20329102 -231.609375 196.14892578 C-224.06447465 138.22609709 -201.97029212 82.07818586 -154.80371094 45.18432617 C-151.5993984 42.77559148 -148.33039655 40.48059118 -145 38.25 C-144.41250977 37.85554687 -143.82501953 37.46109375 -143.21972656 37.0546875 C-110.07661563 15.21922618 -71.14989511 4.95300119 -32 1.25 C-31.03803711 1.1557373 -30.07607422 1.06147461 -29.08496094 0.96435547 C-19.39542103 0.10921609 -9.72040368 0.00677756 0 0 Z M-67.7265625 142.1796875 C-86.70912229 165.27611473 -91.31248367 194.11192507 -91.3359375 223.09375 C-91.34238724 224.99401951 -91.34911709 226.89428808 -91.35610962 228.79455566 C-91.36801246 232.76149795 -91.37179791 236.72835365 -91.37060547 240.6953125 C-91.37044327 244.71763151 -91.38428685 248.73949344 -91.41162109 252.76171875 C-92.01112897 283.28181839 -92.01112897 283.28181839 -87 313.25 C-86.8055278 313.96137619 -86.6110556 314.67275238 -86.41069031 315.40568542 C-82.43495155 329.63622487 -76.06776493 343.33423336 -66 354.25 C-64.76636719 355.62091797 -64.76636719 355.62091797 -63.5078125 357.01953125 C-46.68346929 374.84358181 -25.03680541 381.43135762 -1.16796875 382.2109375 C21.42429668 382.60501302 44.09807114 375.5874528 61 360.25 C61.83144531 359.51136719 62.66289062 358.77273438 63.51953125 358.01171875 C77.16544776 345.20426101 85.14815496 328.34086951 89.8125 310.4375 C90.10495605 309.33897705 90.10495605 309.33897705 90.40332031 308.21826172 C94.91419207 289.47865251 94.31680476 270.03333411 94.26074219 250.89819336 C94.24933838 246.97294121 94.25612939 243.04795986 94.26761436 239.1227169 C94.47979742 210.95654438 94.47979742 210.95654438 89.875 183.25 C89.66254639 182.42806152 89.45009277 181.60612305 89.23120117 180.75927734 C82.71908985 156.91732085 69.50172978 136.76650341 47.83056641 124.25927734 C10.81676666 103.85182894 -39.22901722 110.62059578 -67.7265625 142.1796875 Z " fill="#0078F6" transform="translate(3089,951.75)"/>
<path d="M0 0 C1.04515274 -0.00701431 2.09030548 -0.01402863 3.16712952 -0.02125549 C6.51510997 -0.03863796 9.8629136 -0.04510621 13.2109375 -0.046875 C14.92635239 -0.04788712 14.92635239 -0.04788712 16.67642212 -0.04891968 C33.16824755 -0.03344092 49.31526581 0.24690034 65.5859375 3.203125 C66.58931152 3.38004883 67.59268555 3.55697266 68.62646484 3.73925781 C117.32927198 12.54454285 162.37346743 34.22199502 191.2355957 75.64111328 C217.59316537 114.40908199 227.00433022 160.56185734 228.1484375 206.828125 C228.16961639 207.64297363 228.19079529 208.45782227 228.21261597 209.29736328 C228.93196531 237.9215433 228.67357072 266.57229821 228.5859375 295.203125 C221.49403079 296.13710977 214.56641446 296.34213873 207.41819763 296.32337952 C206.21811052 296.32423394 205.01802341 296.32508837 203.78157002 296.32596868 C200.47262225 296.32732499 197.16373439 296.32422269 193.85479391 296.31919062 C190.2782316 296.31485453 186.70167101 296.31633478 183.12510681 296.3170929 C176.93578597 296.31761613 170.7464757 296.31449026 164.55715752 296.30885506 C155.60854666 296.30071291 146.65994089 296.29812206 137.71132673 296.29686707 C123.19125594 296.29468081 108.67119078 296.28803229 94.15112305 296.27856445 C80.04988635 296.2693793 65.94865119 296.26230386 51.84741211 296.25805664 C50.54265481 296.25766256 50.54265481 296.25766256 49.21153878 296.25726051 C44.8476257 296.25595543 40.4837126 296.25469173 36.11979949 296.25344861 C-0.05815848 296.24308927 -36.23611005 296.22548256 -72.4140625 296.203125 C-71.82865952 299.97205949 -71.22624632 303.73809657 -70.62109375 307.50390625 C-70.37655457 309.08032898 -70.37655457 309.08032898 -70.1270752 310.68859863 C-66.48553115 333.13830729 -57.9900393 355.55283171 -39.6640625 370.015625 C-1.00799492 397.45212417 59.96037561 391.38680211 103.93746948 383.96044922 C131.52560045 379.17885227 158.19215378 371.38721477 184.51489258 361.93994141 C186.19827311 361.3410445 187.89088506 360.76814248 189.5859375 360.203125 C191.74190701 365.75481711 193.56435695 371.2990416 195.16137695 377.03417969 C195.51798149 378.29913521 195.51798149 378.29913521 195.88179016 379.58964539 C196.65848921 382.35026638 197.4294892 385.11242811 198.19921875 387.875 C198.46374533 388.82250374 198.7282719 389.77000748 199.00081444 390.74622345 C200.39688164 395.74872811 201.78826627 400.75250877 203.17602539 405.75732422 C204.61087563 410.92807251 206.06258412 416.0939323 207.51800251 421.25892258 C208.6350324 425.23505416 209.73931867 429.21464322 210.84013939 433.19528961 C211.369995 435.10245366 211.90472703 437.00826981 212.44439125 438.91268158 C213.19564782 441.56812557 213.92870818 444.22795764 214.6574707 446.88964844 C214.88436584 447.67621323 215.11126099 448.46277802 215.34503174 449.2731781 C216.7759877 454.60447545 216.7759877 454.60447545 215.80862427 457.65162659 C214.33801095 459.51772532 213.12499528 460.26145543 210.96484375 461.24609375 C209.83103271 461.76647217 209.83103271 461.76647217 208.67431641 462.29736328 C207.84077637 462.65813965 207.00723633 463.01891602 206.1484375 463.390625 C205.26591309 463.77718262 204.38338867 464.16374023 203.47412109 464.56201172 C118.76479855 500.71147758 -5.44192259 509.38151745 -92.28125 474.99609375 C-105.38778432 469.41245948 -118.83197807 463.58165416 -130.4140625 455.203125 C-131.35636719 454.53023437 -132.29867188 453.85734375 -133.26953125 453.1640625 C-138.88845698 449.04981675 -144.31431598 444.72203573 -149.6640625 440.265625 C-150.23753418 439.79286133 -150.81100586 439.32009766 -151.40185547 438.83300781 C-152.77903161 437.66851807 -154.10229997 436.44083642 -155.4140625 435.203125 C-155.4140625 434.543125 -155.4140625 433.883125 -155.4140625 433.203125 C-156.4040625 432.873125 -157.3940625 432.543125 -158.4140625 432.203125 C-160.99512314 429.76583697 -163.17054897 426.94942217 -165.4140625 424.203125 C-166.17074219 423.28273438 -166.92742187 422.36234375 -167.70703125 421.4140625 C-183.71647455 401.30681257 -194.70525565 378.63494965 -202.4140625 354.203125 C-202.76960205 353.07656494 -202.76960205 353.07656494 -203.13232422 351.92724609 C-208.25883645 335.34749812 -211.04061243 318.34507774 -213.1015625 301.140625 C-213.22096191 300.16222656 -213.34036133 299.18382812 -213.46337891 298.17578125 C-215.54960437 279.57788133 -215.62033644 260.83233974 -215.6015625 242.140625 C-215.60095825 241.02205109 -215.600354 239.90347717 -215.59973145 238.75100708 C-215.55192681 206.07799559 -213.57195049 173.74837076 -204.4140625 142.203125 C-204.17880859 141.38102539 -203.94355469 140.55892578 -203.70117188 139.71191406 C-195.88967056 112.98998412 -182.87589273 88.10389267 -164.4140625 67.203125 C-163.7339209 66.42461182 -163.7339209 66.42461182 -163.04003906 65.63037109 C-156.37771489 58.04012803 -149.48325864 51.32458414 -141.4140625 45.203125 C-140.30722447 44.33341884 -139.20045696 43.46362294 -138.09375 42.59375 C-99.7836283 12.99430659 -47.81957442 0.21645446 0 0 Z M-24.4140625 105.203125 C-25.34605469 105.62207031 -26.27804687 106.04101562 -27.23828125 106.47265625 C-46.38972083 115.95275544 -58.16077788 133.94523172 -65.24755859 153.50341797 C-68.07207527 161.99558709 -69.82607838 170.68754336 -71.2265625 179.515625 C-71.3507959 180.29091553 -71.4750293 181.06620605 -71.60302734 181.86499023 C-72.58902898 188.80414058 -72.4140625 194.99885775 -72.4140625 202.203125 C-14.9940625 202.203125 42.4259375 202.203125 101.5859375 202.203125 C101.5859375 170.74715469 98.02940468 140.65274641 75.7109375 116.828125 C56.97831604 99.20833254 33.0727345 96.45824829 8.56054688 97.06689453 C-3.03005058 97.59771802 -13.85202167 100.37199492 -24.4140625 105.203125 Z " fill="#0078F6" transform="translate(1533.4140625,952.796875)"/>
<path d="M0 0 C1.57974748 0.16657748 3.16029942 0.32559946 4.74133301 0.47949219 C5.55817566 0.56215332 6.37501831 0.64481445 7.21661377 0.72998047 C7.95932526 0.80273193 8.70203674 0.8754834 9.46725464 0.95043945 C11.21807861 1.23388672 11.21807861 1.23388672 12.21807861 2.23388672 C12.31354792 3.63799989 12.3399639 5.04688481 12.33833313 6.45423889 C12.34039513 7.81939384 12.34039513 7.81939384 12.34249878 9.21212769 C12.3389035 10.21841217 12.33530823 11.22469666 12.331604 12.26147461 C12.33175003 13.31500626 12.33189606 14.3685379 12.33204651 15.45399475 C12.33134687 18.95486472 12.32355209 22.45568223 12.31573486 25.95654297 C12.31387087 28.37650015 12.31244688 30.79645771 12.31144714 33.21641541 C12.30762053 39.60003696 12.29778903 45.98363593 12.28674316 52.36724854 C12.27653212 58.87552586 12.27195018 65.38380682 12.26690674 71.89208984 C12.25616689 84.67269846 12.23927973 97.45329139 12.21807861 110.23388672 C11.50636505 110.24197357 10.79465149 110.25006042 10.06137085 110.25839233 C3.26798718 110.33718149 -3.52523746 110.42470481 -10.31838799 110.5214138 C-13.80863562 110.57081055 -17.29886089 110.61713156 -20.78924561 110.65576172 C-59.33685871 109.41824483 -59.33685871 109.41824483 -92.78192139 125.23388672 C-93.44192139 125.23388672 -94.10192139 125.23388672 -94.78192139 125.23388672 C-95.06293701 125.82298828 -95.34395264 126.41208984 -95.63348389 127.01904297 C-96.68442395 129.04585594 -97.85124788 130.80435677 -99.15692139 132.67138672 C-105.70451229 143.03517706 -106.90046438 155.25466127 -106.98724365 167.22021484 C-106.99727637 168.09345146 -107.00730909 168.96668808 -107.01764584 169.86638641 C-107.0487857 172.66594374 -107.07369981 175.46551536 -107.09832764 178.26513672 C-107.11675375 180.00439896 -107.1355916 181.74365689 -107.15484619 183.48291016 C-107.22301843 189.89985136 -107.28324709 196.31687498 -107.34442139 202.73388672 C-107.48879639 217.08888672 -107.63317139 231.44388672 -107.78192139 246.23388672 C-68.84192139 246.23388672 -29.90192139 246.23388672 10.21807861 246.23388672 C9.06929678 266.91195965 9.06929678 266.91195965 8.27838135 275.36523438 C8.14438604 276.84044839 8.14438604 276.84044839 8.00768375 278.34546471 C7.72529991 281.44657149 7.43861965 284.54726177 7.15167236 287.64794922 C6.9736897 289.5954326 6.79599606 291.54294241 6.61859131 293.49047852 C5.96773419 300.61360012 5.31133959 307.73621489 4.65557861 314.85888672 C3.19120361 330.82263672 1.72682861 346.78638672 0.21807861 363.23388672 C-35.42192139 363.23388672 -71.06192139 363.23388672 -107.78192139 363.23388672 C-107.78192139 481.04388672 -107.78192139 598.85388672 -107.78192139 720.23388672 C-154.97192139 720.23388672 -202.16192139 720.23388672 -250.78192139 720.23388672 C-250.78192139 602.42388672 -250.78192139 484.61388672 -250.78192139 363.23388672 C-283.12192139 363.23388672 -315.46192139 363.23388672 -348.78192139 363.23388672 C-348.8220302 335.48304719 -348.8220302 335.48304719 -348.83074951 323.66552734 C-348.83673022 315.59789365 -348.84366071 307.53027121 -348.85736084 299.46264648 C-348.86839927 292.95931733 -348.87420383 286.45599578 -348.87679863 279.9526577 C-348.87864812 277.46992997 -348.88225965 274.98720292 -348.88765144 272.50448036 C-348.89489667 269.0305601 -348.89591084 265.55669025 -348.89544678 262.08276367 C-348.89904205 261.05345734 -348.90263733 260.024151 -348.90634155 258.96365356 C-348.90496689 258.01439499 -348.90359222 257.06513641 -348.9021759 256.08711243 C-348.9030977 255.26579488 -348.90401949 254.44447733 -348.90496922 253.59827137 C-348.78192139 251.23388672 -348.78192139 251.23388672 -347.78192139 246.23388672 C-315.77192139 246.23388672 -283.76192139 246.23388672 -250.78192139 246.23388672 C-250.81672607 239.00482422 -250.85153076 231.77576172 -250.88739014 224.32763672 C-250.90275184 219.69742011 -250.91719602 215.06723573 -250.92840576 210.43701172 C-250.94621197 203.11728236 -250.9670779 195.79766751 -251.00823975 188.47802734 C-251.04127852 182.56462872 -251.05886633 176.6513532 -251.06655312 170.73786926 C-251.07201797 168.50248786 -251.082684 166.26711178 -251.09911156 164.03178406 C-251.41608709 119.03484221 -242.11207971 73.71764252 -209.78192139 40.60888672 C-155.78180176 -12.84137004 -69.48678887 -7.40524429 0 0 Z " fill="#0078F6" transform="translate(380.78192138671875,714.76611328125)"/>
<path d="M0 0 C-0.64222665 6.46424956 -2.55877372 12.33671114 -4.578125 18.4921875 C-4.9415097 19.61569611 -5.30489441 20.73920471 -5.67929077 21.89675903 C-6.86446373 25.55783606 -8.05728805 29.21637292 -9.25 32.875 C-10.27181842 36.02707601 -11.29230973 39.17957778 -12.31233788 42.33223343 C-12.51583162 42.96116879 -12.71932537 43.59010414 -12.9289856 44.23809814 C-13.13258823 44.86741493 -13.33619087 45.49673172 -13.54596329 46.14511871 C-14.16516349 48.05808892 -14.78510982 49.97081591 -15.40524292 51.88348389 C-19.19339226 63.57379724 -22.92043981 75.28297174 -26.625 87 C-27.17998816 88.75375136 -27.73500037 90.5074951 -28.29003906 92.26123047 C-29.52793654 96.17376149 -30.76447224 100.08672004 -32 104 C-33.47150493 103.41313831 -34.94281796 102.82579543 -36.4140625 102.23828125 C-37.33219727 101.8717041 -38.25033203 101.50512695 -39.19628906 101.12744141 C-41.66574649 100.13441159 -44.12620194 99.12223798 -46.5859375 98.10546875 C-88.24023507 81.21812046 -138.2663653 74.12798056 -180.82495117 92.08959961 C-204.27090015 102.53570679 -220.49714877 120.31909801 -230 144 C-236.06334346 160.03852142 -237.47071419 176.63324955 -237.3984375 193.625 C-237.40046813 195.34977338 -237.40338767 197.07454591 -237.40713501 198.79931641 C-237.41151203 202.38257161 -237.40527902 205.96559972 -237.39111328 209.54882812 C-237.37402424 214.08678278 -237.38389065 218.62420466 -237.40183067 223.16213989 C-237.41279519 226.71431316 -237.40916496 230.26636507 -237.4014473 233.81854248 C-237.39948005 235.48948229 -237.40177845 237.16043401 -237.40888596 238.83135986 C-237.45768495 253.51796241 -236.24734354 268.31519891 -231.25 282.25 C-230.99323486 282.98686035 -230.73646973 283.7237207 -230.47192383 284.48291016 C-222.28080187 307.28009591 -207.9270918 324.89930066 -187 337 C-186.06929687 337.55429688 -185.13859375 338.10859375 -184.1796875 338.6796875 C-148.97016195 358.03991095 -104.9450017 352.48308371 -68 342 C-56.07904794 338.34413084 -44.5550575 333.65643012 -33 329 C-25.15121334 352.38424648 -17.43553198 375.81170649 -9.75 399.25 C-9.50915806 399.98448364 -9.26831612 400.71896729 -9.02017593 401.47570801 C-6.01201323 410.65000115 -3.00532756 419.82477771 0 429 C-3.74548322 432.88110242 -7.28481338 435.54157504 -12.125 437.875 C-12.81803223 438.21378174 -13.51106445 438.55256348 -14.22509766 438.90161133 C-50.89909275 456.39084371 -91.81585756 461.13906497 -132 462 C-132.76973145 462.02191406 -133.53946289 462.04382812 -134.33251953 462.06640625 C-200.04118702 463.86541152 -269.52633041 448.86053983 -318.74316406 403.11206055 C-333.42339256 389.1805728 -344.73738894 372.94088785 -354 355 C-354.31275879 354.39510742 -354.62551758 353.79021484 -354.94775391 353.16699219 C-391.04951745 282.19573863 -390.71390754 179.27535935 -366.69335938 104.48681641 C-357.36472893 76.85158362 -342.81796469 53.25259849 -323 32 C-322.27554688 31.20980469 -321.55109375 30.41960938 -320.8046875 29.60546875 C-256.42790544 -37.93559582 -134.80721958 -42.636479 0 0 Z " fill="#0078F6" transform="translate(1301,983)"/>
</svg>
